<?xml version="1.0" encoding="UTF-8"?>
<svg width="888px" height="100px" viewBox="0 0 888 100" version="1.1" xmlns="http://www.w3.org/2000/svg" xmlns:xlink="http://www.w3.org/1999/xlink">
    <title>Nyan Footer</title>
    <g id="Nyan-Footer" stroke="none" stroke-width="1" fill="none" fill-rule="evenodd">
        <g id="Group" transform="translate(0, 16)">
            <rect id="Rectangle" fill="#FD1B00" x="0" y="0" width="36" height="11"></rect>
            <rect id="Rectangle" fill="#FD9B02" x="0" y="10" width="36" height="11"></rect>
            <rect id="Rectangle" fill="#FDEF03" x="0" y="21" width="36" height="11"></rect>
            <rect id="Rectangle" fill="#21DB04" x="0" y="30" width="36" height="11"></rect>
            <rect id="Rectangle" fill="#028AFC" x="0" y="41" width="36" height="11"></rect>
            <rect id="Rectangle" fill="#6D3EFC" x="0" y="51" width="36" height="11"></rect>
        </g>
        <g id="Group" transform="translate(72, 16)">
            <rect id="Rectangle" fill="#FD1B00" x="0" y="0" width="36" height="11"></rect>
            <rect id="Rectangle" fill="#FD9B02" x="0" y="10" width="36" height="11"></rect>
            <rect id="Rectangle" fill="#FDEF03" x="0" y="21" width="36" height="11"></rect>
            <rect id="Rectangle" fill="#21DB04" x="0" y="30" width="36" height="11"></rect>
            <rect id="Rectangle" fill="#028AFC" x="0" y="41" width="36" height="11"></rect>
            <rect id="Rectangle" fill="#6D3EFC" x="0" y="51" width="36" height="11"></rect>
        </g>
        <g id="Group" transform="translate(36, 21)">
            <rect id="Rectangle" fill="#FD1B00" x="0" y="0" width="36" height="11"></rect>
            <rect id="Rectangle" fill="#FD9B02" x="0" y="10" width="36" height="11"></rect>
            <rect id="Rectangle" fill="#FDEF03" x="0" y="21" width="36" height="11"></rect>
            <rect id="Rectangle" fill="#21DB04" x="0" y="30" width="36" height="11"></rect>
            <rect id="Rectangle" fill="#028AFC" x="0" y="41" width="36" height="11"></rect>
            <rect id="Rectangle" fill="#6D3EFC" x="0" y="51" width="36" height="11"></rect>
        </g>
        <g id="Group" transform="translate(144, 16)">
            <rect id="Rectangle" fill="#FD1B00" x="0" y="0" width="36" height="11"></rect>
            <rect id="Rectangle" fill="#FD9B02" x="0" y="10" width="36" height="11"></rect>
            <rect id="Rectangle" fill="#FDEF03" x="0" y="21" width="36" height="11"></rect>
            <rect id="Rectangle" fill="#21DB04" x="0" y="30" width="36" height="11"></rect>
            <rect id="Rectangle" fill="#028AFC" x="0" y="41" width="36" height="11"></rect>
            <rect id="Rectangle" fill="#6D3EFC" x="0" y="51" width="36" height="11"></rect>
        </g>
        <g id="Group" transform="translate(108, 21)">
            <rect id="Rectangle" fill="#FD1B00" x="0" y="0" width="36" height="11"></rect>
            <rect id="Rectangle" fill="#FD9B02" x="0" y="10" width="36" height="11"></rect>
            <rect id="Rectangle" fill="#FDEF03" x="0" y="21" width="36" height="11"></rect>
            <rect id="Rectangle" fill="#21DB04" x="0" y="30" width="36" height="11"></rect>
            <rect id="Rectangle" fill="#028AFC" x="0" y="41" width="36" height="11"></rect>
            <rect id="Rectangle" fill="#6D3EFC" x="0" y="51" width="36" height="11"></rect>
        </g>
        <g id="Group" transform="translate(216, 16)">
            <rect id="Rectangle" fill="#FD1B00" x="0" y="0" width="36" height="11"></rect>
            <rect id="Rectangle" fill="#FD9B02" x="0" y="10" width="36" height="11"></rect>
            <rect id="Rectangle" fill="#FDEF03" x="0" y="21" width="36" height="11"></rect>
            <rect id="Rectangle" fill="#21DB04" x="0" y="30" width="36" height="11"></rect>
            <rect id="Rectangle" fill="#028AFC" x="0" y="41" width="36" height="11"></rect>
            <rect id="Rectangle" fill="#6D3EFC" x="0" y="51" width="36" height="11"></rect>
        </g>
        <g id="Group" transform="translate(180, 21)">
            <rect id="Rectangle" fill="#FD1B00" x="0" y="0" width="36" height="11"></rect>
            <rect id="Rectangle" fill="#FD9B02" x="0" y="10" width="36" height="11"></rect>
            <rect id="Rectangle" fill="#FDEF03" x="0" y="21" width="36" height="11"></rect>
            <rect id="Rectangle" fill="#21DB04" x="0" y="30" width="36" height="11"></rect>
            <rect id="Rectangle" fill="#028AFC" x="0" y="41" width="36" height="11"></rect>
            <rect id="Rectangle" fill="#6D3EFC" x="0" y="51" width="36" height="11"></rect>
        </g>
        <g id="Group" transform="translate(288, 16)">
            <rect id="Rectangle" fill="#FD1B00" x="0" y="0" width="36" height="11"></rect>
            <rect id="Rectangle" fill="#FD9B02" x="0" y="10" width="36" height="11"></rect>
            <rect id="Rectangle" fill="#FDEF03" x="0" y="21" width="36" height="11"></rect>
            <rect id="Rectangle" fill="#21DB04" x="0" y="30" width="36" height="11"></rect>
            <rect id="Rectangle" fill="#028AFC" x="0" y="41" width="36" height="11"></rect>
            <rect id="Rectangle" fill="#6D3EFC" x="0" y="51" width="36" height="11"></rect>
        </g>
        <g id="Group" transform="translate(252, 21)">
            <rect id="Rectangle" fill="#FD1B00" x="0" y="0" width="36" height="11"></rect>
            <rect id="Rectangle" fill="#FD9B02" x="0" y="10" width="36" height="11"></rect>
            <rect id="Rectangle" fill="#FDEF03" x="0" y="21" width="36" height="11"></rect>
            <rect id="Rectangle" fill="#21DB04" x="0" y="30" width="36" height="11"></rect>
            <rect id="Rectangle" fill="#028AFC" x="0" y="41" width="36" height="11"></rect>
            <rect id="Rectangle" fill="#6D3EFC" x="0" y="51" width="36" height="11"></rect>
        </g>
        <g id="Group" transform="translate(360, 16)">
            <rect id="Rectangle" fill="#FD1B00" x="0" y="0" width="36" height="11"></rect>
            <rect id="Rectangle" fill="#FD9B02" x="0" y="10" width="36" height="11"></rect>
            <rect id="Rectangle" fill="#FDEF03" x="0" y="21" width="36" height="11"></rect>
            <rect id="Rectangle" fill="#21DB04" x="0" y="30" width="36" height="11"></rect>
            <rect id="Rectangle" fill="#028AFC" x="0" y="41" width="36" height="11"></rect>
            <rect id="Rectangle" fill="#6D3EFC" x="0" y="51" width="36" height="11"></rect>
        </g>
        <g id="Group" transform="translate(324, 21)">
            <rect id="Rectangle" fill="#FD1B00" x="0" y="0" width="36" height="11"></rect>
            <rect id="Rectangle" fill="#FD9B02" x="0" y="10" width="36" height="11"></rect>
            <rect id="Rectangle" fill="#FDEF03" x="0" y="21" width="36" height="11"></rect>
            <rect id="Rectangle" fill="#21DB04" x="0" y="30" width="36" height="11"></rect>
            <rect id="Rectangle" fill="#028AFC" x="0" y="41" width="36" height="11"></rect>
            <rect id="Rectangle" fill="#6D3EFC" x="0" y="51" width="36" height="11"></rect>
        </g>
        <g id="Group" transform="translate(432, 16)">
            <rect id="Rectangle" fill="#FD1B00" x="0" y="0" width="36" height="11"></rect>
            <rect id="Rectangle" fill="#FD9B02" x="0" y="10" width="36" height="11"></rect>
            <rect id="Rectangle" fill="#FDEF03" x="0" y="21" width="36" height="11"></rect>
            <rect id="Rectangle" fill="#21DB04" x="0" y="30" width="36" height="11"></rect>
            <rect id="Rectangle" fill="#028AFC" x="0" y="41" width="36" height="11"></rect>
            <rect id="Rectangle" fill="#6D3EFC" x="0" y="51" width="36" height="11"></rect>
        </g>
        <g id="Group" transform="translate(396, 21)">
            <rect id="Rectangle" fill="#FD1B00" x="0" y="0" width="36" height="11"></rect>
            <rect id="Rectangle" fill="#FD9B02" x="0" y="10" width="36" height="11"></rect>
            <rect id="Rectangle" fill="#FDEF03" x="0" y="21" width="36" height="11"></rect>
            <rect id="Rectangle" fill="#21DB04" x="0" y="30" width="36" height="11"></rect>
            <rect id="Rectangle" fill="#028AFC" x="0" y="41" width="36" height="11"></rect>
            <rect id="Rectangle" fill="#6D3EFC" x="0" y="51" width="36" height="11"></rect>
        </g>
        <g id="Group" transform="translate(504, 16)">
            <rect id="Rectangle" fill="#FD1B00" x="0" y="0" width="36" height="11"></rect>
            <rect id="Rectangle" fill="#FD9B02" x="0" y="10" width="36" height="11"></rect>
            <rect id="Rectangle" fill="#FDEF03" x="0" y="21" width="36" height="11"></rect>
            <rect id="Rectangle" fill="#21DB04" x="0" y="30" width="36" height="11"></rect>
            <rect id="Rectangle" fill="#028AFC" x="0" y="41" width="36" height="11"></rect>
            <rect id="Rectangle" fill="#6D3EFC" x="0" y="51" width="36" height="11"></rect>
        </g>
        <g id="Group" transform="translate(468, 21)">
            <rect id="Rectangle" fill="#FD1B00" x="0" y="0" width="36" height="11"></rect>
            <rect id="Rectangle" fill="#FD9B02" x="0" y="10" width="36" height="11"></rect>
            <rect id="Rectangle" fill="#FDEF03" x="0" y="21" width="36" height="11"></rect>
            <rect id="Rectangle" fill="#21DB04" x="0" y="30" width="36" height="11"></rect>
            <rect id="Rectangle" fill="#028AFC" x="0" y="41" width="36" height="11"></rect>
            <rect id="Rectangle" fill="#6D3EFC" x="0" y="51" width="36" height="11"></rect>
        </g>
        <g id="Group" transform="translate(576, 16)">
            <rect id="Rectangle" fill="#FD1B00" x="0" y="0" width="36" height="11"></rect>
            <rect id="Rectangle" fill="#FD9B02" x="0" y="10" width="36" height="11"></rect>
            <rect id="Rectangle" fill="#FDEF03" x="0" y="21" width="36" height="11"></rect>
            <rect id="Rectangle" fill="#21DB04" x="0" y="30" width="36" height="11"></rect>
            <rect id="Rectangle" fill="#028AFC" x="0" y="41" width="36" height="11"></rect>
            <rect id="Rectangle" fill="#6D3EFC" x="0" y="51" width="36" height="11"></rect>
        </g>
        <g id="Group" transform="translate(540, 21)">
            <rect id="Rectangle" fill="#FD1B00" x="0" y="0" width="36" height="11"></rect>
            <rect id="Rectangle" fill="#FD9B02" x="0" y="10" width="36" height="11"></rect>
            <rect id="Rectangle" fill="#FDEF03" x="0" y="21" width="36" height="11"></rect>
            <rect id="Rectangle" fill="#21DB04" x="0" y="30" width="36" height="11"></rect>
            <rect id="Rectangle" fill="#028AFC" x="0" y="41" width="36" height="11"></rect>
            <rect id="Rectangle" fill="#6D3EFC" x="0" y="51" width="36" height="11"></rect>
        </g>
        <g id="Group" transform="translate(648, 16)">
            <rect id="Rectangle" fill="#FD1B00" x="0" y="0" width="36" height="11"></rect>
            <rect id="Rectangle" fill="#FD9B02" x="0" y="10" width="36" height="11"></rect>
            <rect id="Rectangle" fill="#FDEF03" x="0" y="21" width="36" height="11"></rect>
            <rect id="Rectangle" fill="#21DB04" x="0" y="30" width="36" height="11"></rect>
            <rect id="Rectangle" fill="#028AFC" x="0" y="41" width="36" height="11"></rect>
            <rect id="Rectangle" fill="#6D3EFC" x="0" y="51" width="36" height="11"></rect>
        </g>
        <g id="Group" transform="translate(612, 21)">
            <rect id="Rectangle" fill="#FD1B00" x="0" y="0" width="36" height="11"></rect>
            <rect id="Rectangle" fill="#FD9B02" x="0" y="10" width="36" height="11"></rect>
            <rect id="Rectangle" fill="#FDEF03" x="0" y="21" width="36" height="11"></rect>
            <rect id="Rectangle" fill="#21DB04" x="0" y="30" width="36" height="11"></rect>
            <rect id="Rectangle" fill="#028AFC" x="0" y="41" width="36" height="11"></rect>
            <rect id="Rectangle" fill="#6D3EFC" x="0" y="51" width="36" height="11"></rect>
        </g>
        <g id="Group" transform="translate(720, 16)">
            <rect id="Rectangle" fill="#FD1B00" x="0" y="0" width="36" height="11"></rect>
            <rect id="Rectangle" fill="#FD9B02" x="0" y="10" width="36" height="11"></rect>
            <rect id="Rectangle" fill="#FDEF03" x="0" y="21" width="36" height="11"></rect>
            <rect id="Rectangle" fill="#21DB04" x="0" y="30" width="36" height="11"></rect>
            <rect id="Rectangle" fill="#028AFC" x="0" y="41" width="36" height="11"></rect>
            <rect id="Rectangle" fill="#6D3EFC" x="0" y="51" width="36" height="11"></rect>
        </g>
        <g id="Group" transform="translate(684, 21)">
            <rect id="Rectangle" fill="#FD1B00" x="0" y="0" width="36" height="11"></rect>
            <rect id="Rectangle" fill="#FD9B02" x="0" y="10" width="36" height="11"></rect>
            <rect id="Rectangle" fill="#FDEF03" x="0" y="21" width="36" height="11"></rect>
            <rect id="Rectangle" fill="#21DB04" x="0" y="30" width="36" height="11"></rect>
            <rect id="Rectangle" fill="#028AFC" x="0" y="41" width="36" height="11"></rect>
            <rect id="Rectangle" fill="#6D3EFC" x="0" y="51" width="36" height="11"></rect>
        </g>
        <g id="Group" transform="translate(792, 16)">
            <rect id="Rectangle" fill="#FD1B00" x="0" y="0" width="36" height="11"></rect>
            <rect id="Rectangle" fill="#FD9B02" x="0" y="10" width="36" height="11"></rect>
            <rect id="Rectangle" fill="#FDEF03" x="0" y="21" width="36" height="11"></rect>
            <rect id="Rectangle" fill="#21DB04" x="0" y="30" width="36" height="11"></rect>
            <rect id="Rectangle" fill="#028AFC" x="0" y="41" width="36" height="11"></rect>
            <rect id="Rectangle" fill="#6D3EFC" x="0" y="51" width="36" height="11"></rect>
        </g>
        <g id="Group" transform="translate(756, 21)">
            <rect id="Rectangle" fill="#FD1B00" x="0" y="0" width="36" height="11"></rect>
            <rect id="Rectangle" fill="#FD9B02" x="0" y="10" width="36" height="11"></rect>
            <rect id="Rectangle" fill="#FDEF03" x="0" y="21" width="36" height="11"></rect>
            <rect id="Rectangle" fill="#21DB04" x="0" y="30" width="36" height="11"></rect>
            <rect id="Rectangle" fill="#028AFC" x="0" y="41" width="36" height="11"></rect>
            <rect id="Rectangle" fill="#6D3EFC" x="0" y="51" width="36" height="11"></rect>
        </g>
        <g id="16602348272-4" transform="translate(753, 14)" fill-rule="nonzero">
            <polygon id="Path" fill="#999999" points="15 52 15 46 25 46 25 52"></polygon>
            <polygon id="Path" fill="#999999" points="8 48 8 43 25 43 25 48"></polygon>
            <polygon id="Path" fill="#999999" points="4 46 4 36 11 36 11 46"></polygon>
            <polygon id="Path" fill="#000000" points="0 45 0 37 4 37 4 45"></polygon>
            <polygon id="Path" fill="#000000" points="4 36 4 32 11 32 11 36"></polygon>
            <polygon id="Path" fill="#000000" points="11 45 11 37 15 37 15 45"></polygon>
            <polygon id="Path" fill="#000000" points="12 44 12 40 27 40 27 44"></polygon>
            <polygon id="Path" fill="#000000" points="17 56 17 52 28 52 28 56"></polygon>
            <polygon id="Path" fill="#000000" points="7 52 7 48 15 48 15 52"></polygon>
            <polygon id="Path" fill="#000000" points="4 48 4 44 8 44 8 48"></polygon>
            <polygon id="Path" fill="#000000" points="0 43 0 35 4 35 4 43"></polygon>
            <polygon id="Path" fill="#999999" points="82 76 82 70 90 70 90 76"></polygon>
            <polygon id="Path" fill="#000000" points="90 79 90 68 93 68 93 79"></polygon>
            <polygon id="Path" fill="#000000" points="82 79 82 76 93 76 93 79"></polygon>
            <polygon id="Path" fill="#000000" points="78 76 78 68 82 68 82 76"></polygon>
            <polygon id="Path" fill="#999999" points="103 76 103 70 111 70 111 76"></polygon>
            <polygon id="Path" fill="#000000" points="111 79 111 68 114 68 114 79"></polygon>
            <polygon id="Path" fill="#000000" points="103 79 103 76 114 76 114 79"></polygon>
            <polygon id="Path" fill="#000000" points="99 76 99 68 103 68 103 76"></polygon>
            <polygon id="Path" fill="#999999" points="43 76 43 70 51 70 51 76"></polygon>
            <polygon id="Path" fill="#000000" points="51 79 51 68 54 68 54 79"></polygon>
            <polygon id="Path" fill="#000000" points="43 79 43 76 54 76 54 79"></polygon>
            <polygon id="Path" fill="#000000" points="39 76 39 68 43 68 43 76"></polygon>
            <polygon id="Path" fill="#999999" points="24 76 24 67 32 67 32 76"></polygon>
            <g id="Group" transform="translate(24, 0)">
                <polygon id="Path" fill="#FFCC99" points="7.65362494 67.9024463 7.07723135 62.4793752 75.6675159 62.4793752 75.6675159 67.9024463"></polygon>
                <polygon id="Path" fill="#000000" points="3.95239149 67.2527861 3.95239149 63.2967398 7.50952308 63.2967398 7.50952308 67.2527861"></polygon>
                <polygon id="Path" fill="#FFCC99" points="2.46612408 61.5563785 2.46612408 54.5179352 6.03973117 54.5179352 4.65639761 62.7102317"></polygon>
                <polygon id="Path" fill="#FFCC99" points="3.96471699 63.7486082 4.1952772 54.4024723 79.3563962 54.4024723 79.3563962 63.7486082"></polygon>
                <polygon id="Path" fill="#FFCC99" points="7.11427702 17.4065481 7.46011041 3.16482314 75.4904769 3.16482314 76.2809552 17.4065481"></polygon>
                <polygon id="Path" fill="#FFCC99" points="3.75474079 17.0109365 3.75474079 7.51645324 79.2452315 7.51645324 79.2452315 17.0109365"></polygon>
                <polygon id="Path" fill="#FFCC99" points="1.7785658 55.5823977 1.7785658 9.09896866 80.2333467 9.09896866 80.2333467 55.5823977"></polygon>
                <polygon id="Path" fill="#000000" points="0 63.0989479 0 8.11005056 3.75475463 8.11005056 3.75475463 63.0989479"></polygon>
                <polygon id="Path" fill="#000000" points="7.5918591 72 7.5918591 67.4505641 75.6880999 67.4505641 75.6880999 72"></polygon>
                <polygon id="Path" fill="#000000" points="75.4904907 67.4505503 75.4904907 63.494504 79.2452454 63.494504 79.2452454 67.4505503"></polygon>
                <polygon id="Path" fill="#000000" points="79.2452315 63.4945594 79.2452315 8.30784248 83 8.30784248 83 63.4945594"></polygon>
                <polygon id="Path" fill="#000000" points="75.4904907 8.10987056 75.4904907 4.35163009 79.0476362 4.35163009 79.0476362 8.10987056"></polygon>
                <polygon id="Path" fill="#000000" points="7.11429085 3.95603239 7.11429085 0 75.6881138 0 75.6881138 3.95603239"></polygon>
                <polygon id="Path" fill="#000000" points="3.75475463 8.10987056 3.75475463 4.54943587 7.50950925 4.54943587 7.50950925 8.10987056"></polygon>
                <g transform="translate(7.3712, 7.2653)" fill="#FF99FF" id="Path">
                    <polygon points="0 48.7691201 0 8.76920929 67.7833446 8.76920929 67.7833446 48.7691201"></polygon>
                    <polygon points="4.15000069 53.2306607 4.15000069 4.76922929 63.7870461 4.76922929 63.7870461 53.2306607"></polygon>
                    <polygon points="4.15000069 53.2306607 4.15000069 4.76922929 63.7870461 4.76922929 63.7870461 53.2306607"></polygon>
                    <polygon points="8.14629919 55.9998862 8.14629919 0 59.6370454 0 59.6370454 55.9998862"></polygon>
                </g>
                <g transform="translate(11.5873, 11.6257)" fill="#FF3399" id="Path">
                    <polygon points="3.9962985 8.76922314 3.9962985 4.30769633 8.30000138 4.30769633 8.30000138 8.76922314"></polygon>
                    <polygon points="23.6703866 4.4615268 23.6703866 0 27.9740895 0 27.9740895 4.4615268"></polygon>
                    <polygon points="35.6592544 4.76924314 35.6592544 0.307716331 39.9629573 0.307716331 39.9629573 4.76924314"></polygon>
                    <polygon points="51.3370441 12.9231305 51.3370441 8.46160373 55.6407469 8.46160373 55.6407469 12.9231305"></polygon>
                    <polygon points="19.9814925 20.3077686 19.9814925 15.8462418 24.2851954 15.8462418 24.2851954 20.3077686"></polygon>
                    <polygon points="23.8240888 32.4615668 23.8240888 28.00004 28.1277917 28.00004 28.1277917 32.4615668"></polygon>
                    <polygon points="7.68519261 27.692296 7.68519261 23.2307692 11.9888955 23.2307692 11.9888955 27.692296"></polygon>
                    <polygon points="0 36.615405 0 32.1538782 4.30370288 32.1538782 4.30370288 36.615405"></polygon>
                    <polygon points="15.985194 43.8461849 15.985194 39.3846581 20.2888969 39.3846581 20.2888969 43.8461849"></polygon>
                    <polygon points="4.6111211 48.1538812 4.6111211 43.6923544 8.91482399 43.6923544 8.91482399 48.1538812"></polygon>
                </g>
            </g>
            <polygon id="Path" fill="#999999" points="80 68 80 62 120 62 120 68"></polygon>
            <polygon id="Path" fill="#999999" points="76 64 76 60 125 60 125 64"></polygon>
            <polygon id="Path" fill="#999999" points="116 30 116 24 124 24 124 30"></polygon>
            <polygon id="Path" fill="#999999" points="112 35 112 27 124 27 124 35"></polygon>
            <polygon id="Path" fill="#999999" points="109 38 109 31 125 31 125 38"></polygon>
            <polygon id="Path" fill="#999999" points="87 42 87 34 128 34 128 42"></polygon>
            <polygon id="Path" fill="#999999" points="85 43 85 30 92 30 92 43"></polygon>
            <polygon id="Path" fill="#999999" points="82 44 82 26 88 26 88 44"></polygon>
            <polygon id="Path" fill="#999999" points="77 46 77 22 84 22 84 46"></polygon>
            <polygon id="Path" fill="#999999" points="72 58.8000028 72.0937516 58 75 58 75 60 73.5693523 59.5027335"></polygon>
            <polygon id="Path" fill="#999999" points="73.2718277 60.9000119 73 58.2040152 73.9571537 57 128 57 128 61"></polygon>
            <polygon id="Path" fill="#999999" points="72 60 72 40 130 40 130 60"></polygon>
            <polygon id="Path" fill="#000000" points="69 61 69 40 73 40 73 61"></polygon>
            <polygon id="Path" fill="#000000" points="73 39 73 24 77 24 77 39"></polygon>
            <polygon id="Path" fill="#000000" points="77 24 77 21 84 21 84 24"></polygon>
            <polygon id="Path" fill="#000000" points="84 27 84 23 88 23 88 27"></polygon>
            <polygon id="Path" fill="#000000" points="88 32 88 28 92 28 92 32"></polygon>
            <polygon id="Path" fill="#000000" points="93 35 93 31 109 31 109 35"></polygon>
            <polygon id="Path" fill="#000000" points="109 31 109 27 113 27 113 31"></polygon>
            <polygon id="Path" fill="#000000" points="112 27 112 23 116 23 116 27"></polygon>
            <polygon id="Path" fill="#000000" points="116 24 116 20 124 20 124 24"></polygon>
            <polygon id="Path" fill="#000000" points="124 39 124 23 128 23 128 39"></polygon>
            <polygon id="Path" fill="#000000" points="128 60 128 39 132 39 132 60"></polygon>
            <polygon id="Path" fill="#000000" points="124 64 124 60 128 60 128 64"></polygon>
            <polygon id="Path" fill="#000000" points="73 64 73 60 77 60 77 64"></polygon>
            <polygon id="Path" fill="#000000" points="77 68 77 64 80 64 80 68"></polygon>
            <polygon id="Path" fill="#000000" points="119 68 119 64 124 64 124 68"></polygon>
            <polygon id="Path" fill="#000000" points="81 71 81 67 119 67 119 71"></polygon>
            <polygon id="Path" fill="#000000" points="84 51 84 44 91 44 91 51"></polygon>
            <polygon id="Path" fill="#000000" points="113 51 113 44 120 44 120 51"></polygon>
            <polygon id="Path" fill="#FFFFFF" points="84 48 84 44 88 44 88 48"></polygon>
            <polygon id="Path" fill="#FFFFFF" points="112 48 112 44 116 44 116 48"></polygon>
            <polygon id="Path" fill="#000000" points="88 62 88 55 91 55 91 62"></polygon>
            <polygon id="Path" fill="#000000" points="102 62 102 55 105 55 105 62"></polygon>
            <polygon id="Path" fill="#000000" points="113 62 113 55 116 55 116 62"></polygon>
            <polygon id="Path" fill="#000000" points="89 64 89 60 117 60 117 64"></polygon>
            <polygon id="Path" fill="#FF9999" points="77 59 77 51 84 51 84 59"></polygon>
            <polygon id="Path" fill="#FF9999" points="120 59 120 51 128 51 128 59"></polygon>
            <polygon id="Path" fill="#000000" points="105 51 105 48 109 48 109 51"></polygon>
            <polygon id="Path" fill="#000000" points="20 79 20 67 24 67 24 79"></polygon>
            <polygon id="Path" fill="#000000" points="21 79 21 75 32 75 32 79"></polygon>
            <polygon id="Path" fill="#000000" points="32 75 32 67 36 67 36 75"></polygon>
            <polygon id="Path" fill="#000000" points="24 68 24 64 32 64 32 68"></polygon>
            <polygon id="Path" fill="#000000" points="24 67 24 62 28 62 28 67"></polygon>
        </g>
    </g>
</svg>